<?xml version="1.0" encoding="UTF-8" standalone="no"?>
<!-- Created with Inkscape (http://www.inkscape.org/) -->

<svg
   xmlns:dc="http://purl.org/dc/elements/1.1/"
   xmlns:cc="http://creativecommons.org/ns#"
   xmlns:rdf="http://www.w3.org/1999/02/22-rdf-syntax-ns#"
   xmlns:svg="http://www.w3.org/2000/svg"
   xmlns="http://www.w3.org/2000/svg"
   xmlns:sodipodi="http://sodipodi.sourceforge.net/DTD/sodipodi-0.dtd"
   xmlns:inkscape="http://www.inkscape.org/namespaces/inkscape"
   width="210mm"
   height="297mm"
   viewBox="0 0 210 297"
   version="1.1"
   id="svg8"
   inkscape:version="0.92.2 (5c3e80d, 2017-08-06)"
   sodipodi:docname="css3.svg">
  <defs
     id="defs2" />
  <sodipodi:namedview
     id="base"
     pagecolor="#ffffff"
     bordercolor="#666666"
     borderopacity="1.0"
     inkscape:pageopacity="0.0"
     inkscape:pageshadow="2"
     inkscape:zoom="0.35"
     inkscape:cx="-101.42857"
     inkscape:cy="560"
     inkscape:document-units="mm"
     inkscape:current-layer="layer1"
     showgrid="false"
     inkscape:window-width="1366"
     inkscape:window-height="706"
     inkscape:window-x="1432"
     inkscape:window-y="-8"
     inkscape:window-maximized="1" />
  <metadata
     id="metadata5">
    <rdf:RDF>
      <cc:Work
         rdf:about="">
        <dc:format>image/svg+xml</dc:format>
        <dc:type
           rdf:resource="http://purl.org/dc/dcmitype/StillImage" />
        <dc:title></dc:title>
      </cc:Work>
    </rdf:RDF>
  </metadata>
  <g
     inkscape:label="Layer 1"
     inkscape:groupmode="layer"
     id="layer1">
    <g
       id="g3710"
       transform="translate(4.5357124,3.0238095)">
      <path
         style="fill:#fefefe;stroke-width:0.26458332"
         d="M 32.354771,139.00594 V 37.538239 H 104.32144 176.2881 V 139.00594 240.47365 H 104.32144 32.354771 Z"
         id="path3726"
         inkscape:connector-curvature="0" />
      <path
         style="fill:#e9e9e9;stroke-width:0.26458332"
         d="m 102.86623,240.22312 c -0.29104,-0.1328 -0.94589,-0.25247 -1.45521,-0.26594 -1.15413,-0.0305 -55.748262,-15.17388 -56.149043,-15.57466 -0.33579,-0.33579 -12.3569,-134.092663 -12.369359,-137.631783 -0.0044,-1.236927 -0.14827,-3.836222 -0.319811,-5.776213 -0.265985,-3.008072 -0.256305,-3.562438 0.06577,-3.766262 0.484004,-0.306308 142.858993,-0.320823 143.342083,-0.01461 0.28936,0.183409 0.30144,0.746736 0.0661,3.084608 -0.15833,1.573112 -0.28787,3.817389 -0.28787,4.987276 0,2.254716 -12.07121,138.236494 -12.3316,138.915054 -0.084,0.21885 -0.35007,0.45725 -0.59128,0.52978 -5.1956,1.5623 -54.61174,15.09232 -55.7365,15.26052 -3.02079,0.45176 -3.70645,0.49261 -4.23332,0.25222 z m 19.71146,-36.44118 c 9.82265,-2.7181 17.92293,-5.03503 18.00062,-5.14874 0.0777,-0.11372 0.4131,-3.27747 0.74535,-7.03055 0.33226,-3.75308 2.14373,-24.02832 4.02551,-45.05608 1.88177,-21.02776 3.4216,-38.32159 3.42183,-38.43073 2.4e-4,-0.10914 -10.00081,-0.19844 -22.22456,-0.19844 h -22.225 v 8.46667 8.46667 h 12.38484 c 9.79937,0 12.48391,0.0724 12.85935,0.34696 0.45463,0.33243 0.44037,0.72872 -0.34014,9.4579 -0.68773,7.69154 -0.88531,9.1626 -1.26825,9.44262 -0.34725,0.25391 -3.17235,0.33168 -12.04842,0.33168 H 104.314 l 0.0699,8.40052 0.0699,8.40052 10.88408,0.0691 c 8.86952,0.0563 10.94018,0.13665 11.18718,0.43427 0.22982,0.27691 0.0519,3.16083 -0.73593,11.92841 -0.57147,6.35976 -1.14085,11.6632 -1.26531,11.78541 -0.12445,0.1222 -4.45299,1.35955 -9.61898,2.74966 -5.16599,1.3901 -9.6606,2.6455 -9.98802,2.78976 l -0.59531,0.2623 v 8.73692 c 0,4.8053 0.0893,8.73698 0.19843,8.73706 0.10914,7e-5 8.23516,-2.22376 18.05782,-4.94185 z M 92.216749,65.673426 c -0.460341,-0.18575 -0.472623,-8.572876 -0.01323,-9.032271 0.225234,-0.225234 2.089774,-0.333328 6.416145,-0.371967 l 6.098646,-0.05447 -6.085417,-0.143971 c -3.346979,-0.07918 -6.234244,-0.240295 -6.416145,-0.358023 -0.25336,-0.163978 -0.330729,-2.216943 -0.330729,-8.775756 0,-4.708937 0.07227,-8.750035 0.160599,-8.980218 0.142907,-0.372411 1.381088,-0.418515 11.239752,-0.418515 h 11.07915 l 0.14738,0.595312 c 0.0811,0.327422 0.1131,2.202657 0.0712,4.167188 l -0.0762,3.571875 -6.28385,0.07093 c -3.80645,0.04297 -6.28385,0.171471 -6.28385,0.325941 0,0.15447 2.4774,0.282972 6.28385,0.32594 l 6.28385,0.07093 0.0696,9.374968 c 0.0544,7.324181 -0.004,9.42137 -0.26458,9.587094 -0.3569,0.22655 -21.53931,0.26969 -22.096152,0.045 z m 26.193751,0 c -0.46034,-0.18575 -0.47262,-8.572876 -0.0132,-9.032271 0.22523,-0.225234 2.08977,-0.333328 6.41614,-0.371967 l 6.09865,-0.05447 -6.08542,-0.143971 c -3.34698,-0.07918 -6.23424,-0.240295 -6.41614,-0.358023 -0.25336,-0.163978 -0.33073,-2.216943 -0.33073,-8.775756 0,-4.708937 0.0723,-8.750035 0.1606,-8.980218 0.1429,-0.372392 1.37904,-0.418515 11.21648,-0.418515 9.83745,0 11.07359,0.04612 11.21649,0.418515 0.0883,0.230183 0.1606,2.062913 0.1606,4.072734 0,3.088094 -0.0648,3.6791 -0.41852,3.814818 -0.23018,0.08833 -3.08768,0.160599 -6.35,0.160599 -3.70505,0 -5.93148,0.09752 -5.93148,0.259795 0,0.160721 2.39638,0.286846 6.28385,0.330729 l 6.28385,0.07093 0.0696,9.374968 c 0.0544,7.324181 -0.004,9.42137 -0.26458,9.587094 -0.3569,0.22655 -21.53931,0.26969 -22.09615,0.045 z M 65.871494,65.145935 C 65.649217,64.923656 65.631141,38.53457 65.85287,37.956754 c 0.142898,-0.372392 1.379037,-0.418515 11.216483,-0.418515 9.837447,0 11.073585,0.04612 11.216484,0.418515 0.08833,0.230183 0.160599,2.309587 0.160599,4.620899 0,3.883985 -0.03877,4.223136 -0.511773,4.476277 -0.307395,0.164513 -2.790436,0.273892 -6.217708,0.273892 H 76.01102 v 3.963874 3.963873 l 6.151562,0.07102 6.151563,0.07102 v 4.894792 4.894791 l -11.131714,0.06898 c -6.122442,0.03794 -11.212364,-0.01167 -11.310937,-0.110241 z"
         id="path3724"
         inkscape:connector-curvature="0" />
      <path
         style="fill:#9caeee;stroke-width:0.26458332"
         d="M 100.22039,239.5466 C 93.774695,237.87127 45.570577,224.4089 45.397401,224.23572 45.243565,224.08189 33.401167,91.83686 32.637707,81.747181 c -0.250839,-3.31502 -0.244295,-4.118266 0.03499,-4.295428 0.425021,-0.269605 142.843033,-0.292997 143.241093,-0.02353 0.40618,0.274971 0.51711,-1.0545 -6.40735,76.791087 -4.20486,47.27149 -6.30496,69.81152 -6.52292,70.00949 -0.27278,0.24775 -53.79189,15.13019 -57.39018,15.95889 -1.60601,0.36987 -1.37926,0.39693 -5.37295,-0.64109 z m 22.3573,-35.48318 c 9.82265,-2.71179 17.98857,-5.06455 18.14649,-5.22837 0.16702,-0.17328 1.25244,-11.19827 2.59508,-26.35932 1.26938,-14.3338 3.07261,-34.57442 4.00718,-44.97916 0.93458,-10.40474 1.70156,-19.12607 1.7044,-19.38073 0.005,-0.43917 -2.2985,-0.46302 -44.7094,-0.46302 H 59.606854 v 1.0857 c 0,1.29413 1.298096,15.57016 1.459044,16.04607 0.0887,0.26229 7.142861,0.33073 34.086712,0.33073 28.76569,0 34.02191,0.0567 34.28166,0.36966 0.23447,0.28252 0.1199,2.44904 -0.48599,9.18995 -0.67167,7.4727 -0.8628,8.87146 -1.25102,9.15533 -0.36379,0.26601 -7.09945,0.33506 -32.68681,0.33506 H 62.781854 l 0.01894,0.99219 c 0.01042,0.5457 0.33832,4.445 0.72867,8.6651 l 0.709729,7.67292 31.030052,0.0672 c 24.475765,0.053 31.056535,0.13686 31.155385,0.39687 0.20523,0.53976 -1.91034,22.97283 -2.19314,23.25563 -0.2903,0.29029 -19.43156,5.51671 -20.20445,5.51671 -0.61619,0 -19.783,-5.17253 -20.010754,-5.40028 -0.144439,-0.14444 -1.339665,-11.93352 -1.377159,-13.58357 l -0.01353,-0.59531 h -8.73125 c -6.966923,0 -8.731249,0.0692 -8.731249,0.34237 0,1.68228 2.448628,27.08292 2.628103,27.2624 0.265674,0.26567 35.575419,10.17126 36.397929,10.21086 0.29105,0.014 8.56589,-2.19325 18.38855,-4.90503 z M 92.481332,65.408843 c -0.244464,-0.09864 -0.330729,-1.194953 -0.330729,-4.203136 0,-3.752788 0.03985,-4.091011 0.511773,-4.343576 0.30857,-0.165143 2.837563,-0.273893 6.369399,-0.273893 5.436175,0 5.851235,-0.03331 5.768715,-0.46302 -0.0808,-0.420747 -0.65629,-0.475099 -6.303258,-0.595313 l -6.214337,-0.132292 -0.07399,-8.334374 c -0.04069,-4.583906 -0.0087,-8.602266 0.07119,-8.929688 l 0.145177,-0.595312 h 10.982068 10.98205 l -0.073,4.034896 -0.073,4.034895 -6.21771,0.132292 c -5.29166,0.112589 -6.21771,0.191401 -6.21771,0.529167 0,0.337766 0.92605,0.416578 6.21771,0.529166 l 6.21771,0.132292 0.0697,9.110328 c 0.0544,7.112431 -0.004,9.156859 -0.26459,9.32251 -0.35697,0.226605 -21.010223,0.269753 -21.567073,0.04506 z m 26.193748,0 c -0.45933,-0.185346 -0.47156,-8.04477 -0.0132,-8.503105 0.22791,-0.22791 1.97797,-0.3175 6.20209,-0.3175 5.55386,0 6.66017,-0.136198 6.05316,-0.745207 -0.0991,-0.09946 -2.93879,-0.240366 -6.31035,-0.313126 l -6.13011,-0.132292 -0.0697,-8.929687 -0.0697,-8.929687 h 10.97869 10.97869 l 0.14751,0.595312 c 0.0811,0.327422 0.11317,2.143125 0.0712,4.034896 l -0.0763,3.439583 -6.21771,0.132292 c -5.29166,0.112589 -6.21771,0.191401 -6.21771,0.529167 0,0.337766 0.92605,0.416578 6.21771,0.529166 l 6.21771,0.132292 0.0697,9.110328 c 0.0544,7.112431 -0.004,9.156859 -0.26459,9.32251 -0.35697,0.226605 -21.01022,0.269753 -21.56707,0.04506 z M 66.136138,64.881412 C 65.913819,64.659093 65.89569,38.534661 66.117453,37.956754 66.26032,37.584445 67.487878,37.538239 77.2362,37.538239 h 10.958149 l -0.0724,4.564062 -0.07239,4.564063 -5.932259,0.07133 c -3.9013,0.04691 -6.054921,0.173128 -6.29054,0.368676 -0.278612,0.231227 -0.342086,1.186139 -0.285449,4.294296 l 0.07283,3.996949 6.217708,0.132292 6.217708,0.132292 v 4.630208 4.630208 l -10.867069,0.06904 c -5.976887,0.03797 -10.947747,-0.01164 -11.046354,-0.110244 z"
         id="path3722"
         inkscape:connector-curvature="0" />
      <path
         style="fill:#6e8eed;stroke-width:0.26458332"
         d="m 102.73394,240.06639 c -0.65485,-0.20452 -13.736239,-3.85371 -29.069761,-8.1093 C 49.9199,225.36722 45.752809,224.13984 45.567696,223.68155 45.448153,223.38559 43.0152,196.83063 40.161133,164.67053 33.507963,89.701511 32.663571,80.271751 32.467081,78.747092 l -0.161966,-1.256771 h 71.898415 71.89842 l -0.16273,2.050521 c -0.2579,3.249911 -12.5834,141.318018 -12.76471,142.988098 -0.11397,1.04983 -0.29535,1.55319 -0.60235,1.67165 -0.2416,0.0932 -12.46458,3.50202 -27.16218,7.57511 -14.69761,4.07309 -27.7298,7.6964 -28.96044,8.05179 -1.23063,0.35539 -2.3022,0.6382 -2.38125,0.62846 -0.0791,-0.01 -0.67951,-0.18504 -1.33435,-0.38956 z m 20.11425,-35.8172 c 9.93179,-2.75199 18.13089,-5.122 18.22021,-5.26668 0.25119,-0.40686 8.29057,-91.0212 8.10248,-91.32553 -0.26566,-0.42985 -89.736207,-0.36815 -89.891059,0.062 -0.1245,0.34582 1.310468,16.75391 1.515612,17.3302 0.09334,0.26223 7.148071,0.33157 34.058846,0.33478 18.667611,0.002 34.095021,0.10169 34.283131,0.22103 0.46915,0.29763 -1.06182,17.73723 -1.5863,18.06994 -0.18877,0.11974 -14.89861,0.21954 -32.688528,0.22176 l -32.345312,0.004 -0.0064,0.7276 c -0.01651,1.8699 1.435058,16.64124 1.664039,16.93333 0.204763,0.2612 6.729121,0.33073 31.035214,0.33073 16.926767,0 30.839147,0.10227 30.916397,0.22726 0.16877,0.27308 -1.82834,22.74672 -2.0402,22.95859 -0.19084,0.19083 -19.49277,5.38915 -20.01052,5.38915 -0.63196,0 -19.44111,-5.0899 -19.719354,-5.33621 -0.139459,-0.12345 -0.519173,-3.21435 -0.843809,-6.86867 -0.324633,-3.65432 -0.65328,-6.80848 -0.730321,-7.00925 -0.115229,-0.30028 -1.713868,-0.36504 -9.011923,-0.36504 H 64.89852 v 0.66542 c 0,1.8229 2.411267,27.25168 2.602228,27.44264 0.271555,0.27156 35.934672,10.21475 36.724432,10.2391 0.31086,0.01 8.69121,-2.2342 18.62301,-4.9862 z M 92.531579,64.976591 c -0.07237,-0.188593 -0.0984,-2.063826 -0.05784,-4.167186 l 0.07374,-3.824292 6.072957,-0.07125 c 6.103354,-0.07161 6.643344,-0.159692 6.309674,-1.029235 -0.10805,-0.281572 -1.32619,-0.354723 -5.907007,-0.354723 -3.173987,0 -5.959218,-0.07227 -6.1894,-0.160599 -0.370071,-0.142009 -0.418516,-1.183331 -0.418516,-8.995833 v -8.835234 h 10.847913 10.84792 v 3.963874 3.963873 l -6.15156,0.07102 -6.15157,0.07102 v 0.661459 0.661458 l 6.15157,0.07102 6.15156,0.07102 v 9.123249 9.123248 h -10.72393 c -8.538009,0 -10.750748,-0.0699 -10.85551,-0.342897 z m 26.136771,-3.821317 0.0729,-4.170161 6.15156,-0.07102 6.15156,-0.07102 v -0.651706 -0.651705 l -6.15156,-0.07102 -6.15156,-0.07102 -0.0697,-8.929687 -0.0697,-8.929687 h 10.85143 10.85144 v 3.96875 3.96875 h -6.05302 c -5.05768,0 -6.10718,0.06526 -6.3824,0.396875 -0.26278,0.316631 -0.26278,0.477119 0,0.79375 0.27523,0.331626 1.3251,0.396875 6.38587,0.396875 h 6.0565 l -0.0696,9.061979 -0.0696,9.061978 -10.78851,0.06912 -10.7885,0.06912 z M 66.552166,64.879677 C 66.293602,64.775343 66.221437,61.777862 66.221437,51.142232 V 37.538239 h 10.819609 c 9.621993,0 10.837386,0.04633 10.980208,0.418515 0.273251,0.712081 0.177019,7.787673 -0.113292,8.330129 -0.258596,0.48319 -0.613593,0.511772 -6.356398,0.511772 h -6.082506 l 0.07254,4.431771 0.07254,4.431771 6.072957,0.07125 c 4.453398,0.05225 6.128118,0.15809 6.279801,0.396875 0.113765,0.179094 0.208671,2.073292 0.210899,4.20933 0.0033,3.181665 -0.07111,3.958862 -0.411723,4.299479 -0.364392,0.364392 -1.680483,0.413191 -10.649479,0.394885 -5.628537,-0.01148 -10.382533,-0.08094 -10.564434,-0.154339 z"
         id="path3720"
         inkscape:connector-curvature="0" />
      <path
         style="fill:#5273e8;stroke-width:0.26458332"
         d="m 102.99852,240.06288 c -0.50932,-0.21092 -13.526403,-3.88141 -28.926843,-8.15664 -15.400439,-4.27523 -28.106758,-7.87911 -28.236264,-8.00861 -0.129505,-0.12951 -3.030885,-31.66562 -6.44751,-70.08024 -3.416625,-38.41463 -6.34395,-70.856809 -6.505166,-72.093736 -0.161216,-1.236927 -0.347298,-2.695011 -0.413516,-3.240185 l -0.120396,-0.991227 71.869075,10e-6 71.86908,1.1e-5 -0.15027,1.520383 c -0.0826,0.83621 -3.04766,33.750574 -6.58892,73.143024 -3.54126,39.39245 -6.5077,71.69168 -6.59208,71.77607 -0.0844,0.0844 -12.76061,3.64724 -28.16938,7.91745 -15.40876,4.2702 -28.58564,7.95761 -29.28195,8.19424 -0.69631,0.23662 -1.29163,0.42408 -1.32292,0.41659 -0.0313,-0.007 -0.47362,-0.18621 -0.98294,-0.39714 z m 19.74736,-35.59115 c 10.02119,-2.77511 18.31487,-5.13778 18.43039,-5.25036 0.11553,-0.11258 2.04514,-20.73179 4.28803,-45.82047 3.45005,-38.59175 4.02228,-45.67181 3.71618,-45.9796 -0.30571,-0.30739 -7.31963,-0.33311 -45.2323,-0.16585 l -44.870493,0.19796 -0.0064,0.56273 c -0.0172,1.50569 1.399796,16.5141 1.608148,17.03303 l 0.239019,0.59532 H 95.055376 129.1923 l 0.001,0.59531 c 0.002,0.92546 -1.33137,16.13157 -1.47285,16.80104 l -0.1258,0.59531 -32.340272,0.004 c -17.787149,0.002 -32.500069,0.10533 -32.695377,0.22912 -0.29401,0.18634 -0.219334,1.70691 0.434028,8.83784 0.434022,4.73703 0.856602,8.72195 0.939064,8.85537 0.08847,0.14315 12.81062,0.31668 31.034124,0.42331 16.986303,0.0994 30.934623,0.23114 30.996263,0.29278 0.23802,0.23802 -1.86852,22.24633 -2.15859,22.55218 -0.16511,0.1741 -4.68054,1.49985 -10.03428,2.94612 l -9.73409,2.62959 -9.710806,-2.62664 c -5.340945,-1.44465 -9.792409,-2.71087 -9.892141,-2.81382 -0.09973,-0.10296 -0.443942,-3.22329 -0.76491,-6.93407 -0.320972,-3.71078 -0.701329,-6.8957 -0.845238,-7.0776 -0.388681,-0.49129 -17.472689,-0.47759 -17.880954,0.0143 -0.207635,0.25019 0.03656,4.01532 0.888018,13.69219 0.645922,7.34091 1.266235,13.63643 1.378469,13.99006 0.190685,0.60078 1.401172,0.97684 18.460314,5.73499 10.040938,2.80062 18.391468,5.10091 18.556738,5.11174 0.16527,0.0108 8.49964,-2.25086 18.52083,-5.02598 z M 92.594537,65.146059 c -0.09864,-0.09864 -0.179351,-1.932704 -0.179351,-4.075694 0,-3.308881 0.0631,-3.920559 0.418516,-4.056944 0.230182,-0.08833 3.031886,-0.160599 6.22601,-0.160599 4.939878,0 5.830448,-0.0598 5.961088,-0.400245 0.0845,-0.220134 0.007,-0.577322 -0.17299,-0.79375 -0.27164,-0.327301 -1.34496,-0.393505 -6.379603,-0.393505 H 92.415186 V 46.40178 37.538239 h 10.854994 10.85499 l -0.0732,3.902604 -0.0732,3.902604 -6.21771,0.132292 -6.21771,0.132291 v 0.661459 0.661458 l 6.21771,0.132292 6.21771,0.132291 v 8.995833 8.995833 l -10.60242,0.06911 c -5.831335,0.03801 -10.683131,-0.01159 -10.781773,-0.110244 z m 26.193753,0 c -0.0987,-0.09864 -0.17935,-1.932704 -0.17935,-4.075694 0,-3.308881 0.0631,-3.920559 0.41851,-4.056944 0.23018,-0.08833 3.03189,-0.160599 6.22601,-0.160599 4.93988,0 5.83044,-0.0598 5.96109,-0.400245 0.0845,-0.220134 0.007,-0.577322 -0.17299,-0.79375 -0.27164,-0.327301 -1.34496,-0.393505 -6.3796,-0.393505 h -6.05302 V 46.40178 37.538239 h 10.85498 10.855 l -0.0732,3.902604 -0.0732,3.902604 -6.21771,0.132292 -6.21771,0.132291 v 0.661459 0.661458 l 6.21771,0.132292 6.21771,0.132291 v 8.995833 8.995833 l -10.60242,0.06911 c -5.83134,0.03801 -10.68313,-0.01159 -10.78177,-0.110244 z M 66.397827,64.613932 C 66.300812,64.51692 66.221437,58.3852 66.221437,50.987891 V 37.538239 H 77.069353 87.91727 v 4.497917 4.497916 h -6.0325 c -4.339167,0 -6.121622,0.08912 -6.35,0.3175 -0.361627,0.361626 -0.453289,8.054936 -0.10255,8.607082 0.151683,0.238786 1.826403,0.344626 6.279801,0.396875 l 6.072957,0.07125 0.07254,4.431771 0.07254,4.43177 H 77.252141 c -5.872861,0 -10.757302,-0.07937 -10.854314,-0.176389 z"
         id="path3718"
         inkscape:connector-curvature="0" />
      <path
         style="fill:#2864ef;stroke-width:0.26458332"
         d="m 103.58991,240.26132 c -0.32958,-0.0496 -0.54839,-0.17236 -0.48624,-0.27292 0.0622,-0.10056 -12.749268,-3.75245 -28.469822,-8.11529 -24.407988,-6.77383 -28.609987,-8.01 -28.768808,-8.46336 -0.102292,-0.29199 -3.027056,-32.49917 -6.499475,-71.57151 -3.472419,-39.07235 -6.398405,-71.100159 -6.502191,-71.172919 -0.103787,-0.07276 -0.230915,-0.787135 -0.282507,-1.5875 l -0.0938,-1.455208 42.20104,0.06623 c 23.210573,0.03642 55.446743,0.09595 71.635953,0.132292 19.43539,0.04362 29.47275,-0.02381 29.54629,-0.198517 0.0613,-0.145521 0.12079,0.248459 0.13228,0.875511 0.0115,0.627052 -0.0689,1.084607 -0.17863,1.016789 -0.10973,-0.06782 -3.09653,32.339922 -6.63734,72.017202 -3.54081,39.67727 -6.51689,72.21016 -6.61351,72.29531 -0.0966,0.0851 -13.05361,3.71527 -28.7933,8.06696 -15.7397,4.35168 -28.57007,7.98911 -28.51194,8.08316 0.13735,0.22225 -0.9096,0.39931 -1.678,0.28378 z m 17.79715,-35.24012 c 21.37424,-5.89786 19.94266,-5.45909 20.11062,-6.16376 0.19797,-0.83059 8.0675,-89.19116 8.0675,-90.58342 v -1.15037 h -45.25205 c -37.896198,0 -45.274482,0.0585 -45.39005,0.35962 -0.22546,0.58754 1.433039,17.6934 1.745795,18.00619 0.202301,0.20234 10.358922,0.32645 34.338273,0.41961 l 34.051002,0.13229 -0.082,1.05833 c -0.0451,0.58209 -0.3721,4.32218 -0.7267,8.31133 -0.3546,3.98914 -0.64472,7.41219 -0.64472,7.60677 0,0.29339 -5.52397,0.35378 -32.360889,0.35378 -25.477456,0 -32.454558,0.0704 -32.80126,0.33073 -0.409136,0.30727 -0.38449,0.95003 0.347472,9.06198 0.433313,4.80218 0.843113,8.88007 0.910664,9.06198 0.0973,0.262 6.557626,0.33072 31.087377,0.33072 h 30.964556 v 1.00892 c 0,1.13411 -1.82968,21.54645 -1.94134,21.65812 -0.0394,0.0394 -4.49279,1.26727 -9.8964,2.72859 l -9.82475,2.65694 -9.688731,-2.61987 c -5.328804,-1.44093 -9.744514,-2.67565 -9.812692,-2.74383 -0.06818,-0.0682 -0.401164,-3.19552 -0.739971,-6.94966 -0.531111,-5.885 -0.683053,-6.87473 -1.102468,-7.18142 -0.382929,-0.28 -2.235359,-0.35493 -8.704117,-0.35209 -8.306152,0.004 -9.281866,0.0672 -9.482952,0.61777 -0.209132,0.57259 2.363459,27.96699 2.653609,28.25714 0.376672,0.37667 36.857592,10.53691 37.373142,10.40873 0.21828,-0.0543 7.77875,-2.13557 16.80104,-4.62512 z M 92.53228,64.713836 c -0.07325,-0.190897 -0.0998,-1.948424 -0.05899,-3.905613 l 0.07419,-3.558526 6.217708,-0.132292 6.217702,-0.132292 v -0.79375 -0.79375 L 98.765188,55.265322 92.54748,55.13303 92.47777,46.335635 92.40806,37.538239 h 10.85875 10.85875 l -0.0734,3.770312 -0.0734,3.770313 -6.21771,0.14942 c -3.41974,0.08218 -6.24747,0.171478 -6.28385,0.198438 -0.0364,0.02696 -0.0662,0.406204 -0.0662,0.842767 v 0.79375 h 6.05302 c 4.80103,0 6.11521,0.07494 6.35371,0.36231 0.21416,0.258042 0.28059,2.827906 0.23084,8.929688 l -0.0699,8.567376 -10.65663,0.06915 c -8.598181,0.0558 -10.68236,0.0021 -10.789823,-0.277931 z m 26.19375,0 c -0.0732,-0.190897 -0.0998,-1.948424 -0.059,-3.905613 l 0.0742,-3.558526 6.21771,-0.132292 6.2177,-0.132292 v -0.79375 -0.79375 l -6.2177,-0.132291 -6.21771,-0.132292 -0.0697,-8.797395 -0.0697,-8.797396 h 10.85875 10.85875 l -0.0734,3.770312 -0.0734,3.770313 -6.21771,0.14942 c -3.41974,0.08218 -6.24748,0.171478 -6.28386,0.198438 -0.0364,0.02696 -0.0661,0.406204 -0.0661,0.842767 v 0.79375 h 6.05302 c 4.80103,0 6.11521,0.07494 6.35371,0.36231 0.21416,0.258042 0.28059,2.827906 0.23083,8.929688 l -0.0699,8.567376 -10.65663,0.06915 c -8.59818,0.0558 -10.68236,0.0021 -10.78982,-0.277931 z M 66.383179,64.374783 c -0.08896,-0.23182 -0.161742,-6.364878 -0.161742,-13.629017 V 37.538239 h 10.854314 10.854314 l -0.07254,4.431771 -0.07254,4.43177 -6.217708,0.132292 -6.217708,0.132292 v 4.497916 4.497917 l 6.217708,0.144599 c 3.419739,0.07953 6.250424,0.168827 6.290408,0.198438 0.03999,0.02961 0.03999,1.988603 0,4.353317 l -0.0727,4.299479 -10.620028,0.06912 c -9.512144,0.06191 -10.636903,0.02516 -10.781771,-0.352369 z"
         id="path3716"
         inkscape:connector-curvature="0" />
      <path
         style="fill:#254ce3;stroke-width:0.26458332"
         d="m 103.36422,239.99493 c 0.0728,-0.11778 -12.72856,-3.77895 -28.44744,-8.13594 C 59.1979,227.502 46.233956,223.87488 46.108014,223.79871 45.982073,223.72255 42.9849,191.17431 39.44763,151.46928 35.910359,111.76426 32.947157,79.620172 32.862735,80.037973 c -0.111893,0.553757 -0.183602,0.311324 -0.264583,-0.894488 -0.0611,-0.90977 -0.02179,-1.65391 0.08735,-1.653646 0.109141,2.65e-4 0.198438,0.119545 0.198438,0.265065 0,0.426749 142.79212,0.360683 142.96435,-0.06614 0.0734,-0.181902 0.13098,0.14552 0.12797,0.727604 -0.004,0.793583 -0.049,0.903718 -0.17924,0.440266 -0.0956,-0.339936 -3.081,32.045056 -6.6343,71.966666 -4.42862,49.7558 -6.56218,72.67074 -6.78365,72.85823 -0.17769,0.15043 -13.1862,3.83607 -28.90779,8.19031 -15.72158,4.35425 -28.52624,8.0114 -28.45478,8.12702 0.0715,0.11562 -0.30086,0.21022 -0.82736,0.21022 -0.5265,0 -0.89771,-0.0964 -0.82492,-0.21414 z m 24.84572,-18.66108 c 12.77488,-3.54127 23.32661,-6.54734 23.4483,-6.68017 0.25381,-0.27703 11.38326,-124.423074 11.1995,-124.927536 -0.0961,-0.263943 -6.08671,-0.318109 -29.26245,-0.264584 l -29.14156,0.0673 -0.0698,8.660746 -0.0697,8.660754 -22.596286,0.0705 c -12.427958,0.0388 -22.691386,0.16564 -22.807625,0.28191 -0.116236,0.11627 0.151982,4.26435 0.596043,9.21796 0.609446,6.79855 0.899107,9.06461 1.181544,9.24339 0.212225,0.13434 9.737254,0.2386 22.007467,0.2409 l 21.633307,0.004 -0.0698,8.6651 -0.0698,8.66511 -20.946256,0.13229 c -11.520442,0.0728 -21.029916,0.21598 -21.132165,0.31828 -0.215698,0.21579 1.305494,17.7306 1.578267,18.17196 0.131598,0.21293 5.701281,0.29517 19.988926,0.29517 10.893573,0 19.994828,0.0723 20.225008,0.1606 0.37419,0.14359 0.41852,1.61472 0.41852,13.89063 0,12.90011 -0.028,13.72998 -0.46302,13.72927 -0.69066,-0.001 -18.883177,-4.95104 -19.129281,-5.20479 -0.11651,-0.12013 -0.482082,-3.23945 -0.812385,-6.93182 -0.418066,-4.67348 -0.711213,-6.82407 -0.964748,-7.0776 -0.539435,-0.53944 -17.844986,-0.53736 -18.292775,0.002 -0.231262,0.27865 -0.0058,3.69913 0.941499,14.28316 0.685069,7.65423 1.330076,14.05349 1.433351,14.22059 0.103272,0.1671 6.779006,2.13357 14.834959,4.36994 8.055954,2.23636 16.40336,4.55645 18.54979,5.15574 l 3.90261,1.08963 v 8.96456 c 0,6.99556 0.0726,8.96444 0.33073,8.964 0.1819,-2.7e-4 10.7829,-2.89797 23.55777,-6.43924 z M 92.53228,64.713836 c -0.07325,-0.190897 -0.0998,-1.948424 -0.05899,-3.905613 l 0.07419,-3.558526 6.217708,-0.132292 6.217702,-0.132292 v -0.79375 -0.79375 L 98.765188,55.265322 92.54748,55.13303 92.47777,46.335635 92.40806,37.538239 h 10.85875 10.85875 l -0.0734,3.770312 -0.0734,3.770313 -6.21771,0.14942 c -3.41974,0.08218 -6.24747,0.171478 -6.28385,0.198438 -0.0364,0.02696 -0.0662,0.406204 -0.0662,0.842767 v 0.79375 h 6.05302 c 4.80103,0 6.11521,0.07494 6.35371,0.36231 0.21416,0.258042 0.28059,2.827906 0.23084,8.929688 l -0.0699,8.567376 -10.65663,0.06915 c -8.598181,0.0558 -10.68236,0.0021 -10.789823,-0.277931 z m 26.19375,0 c -0.0732,-0.190897 -0.0998,-1.948424 -0.059,-3.905613 l 0.0742,-3.558526 6.21771,-0.132292 6.2177,-0.132292 v -0.79375 -0.79375 l -6.2177,-0.132291 -6.21771,-0.132292 -0.0697,-8.797395 -0.0697,-8.797396 h 10.85875 10.85875 l -0.0734,3.770312 -0.0734,3.770313 -6.21771,0.14942 c -3.41974,0.08218 -6.24748,0.171478 -6.28386,0.198438 -0.0364,0.02696 -0.0661,0.406204 -0.0661,0.842767 v 0.79375 h 6.05302 c 4.80103,0 6.11521,0.07494 6.35371,0.36231 0.21416,0.258042 0.28059,2.827906 0.23083,8.929688 l -0.0699,8.567376 -10.65663,0.06915 c -8.59818,0.0558 -10.68236,0.0021 -10.78982,-0.277931 z M 66.383179,64.374783 c -0.08896,-0.23182 -0.161742,-6.364878 -0.161742,-13.629017 V 37.538239 h 10.854314 10.854314 l -0.07254,4.431771 -0.07254,4.43177 -6.217708,0.132292 -6.217708,0.132292 v 4.497916 4.497917 l 6.217708,0.144599 c 3.419739,0.07953 6.250424,0.168827 6.290408,0.198438 0.03999,0.02961 0.03999,1.988603 0,4.353317 l -0.0727,4.299479 -10.620028,0.06912 c -9.512144,0.06191 -10.636903,0.02516 -10.781771,-0.352369 z"
         id="path3714"
         inkscape:connector-curvature="0" />
      <g
         id="g3729">
        <path
           inkscape:connector-curvature="0"
           id="path3712"
           d="m 92.53228,64.713836 c -0.07325,-0.190897 -0.0998,-1.948424 -0.05899,-3.905613 l 0.07419,-3.558526 6.217708,-0.132292 6.217702,-0.132292 v -0.79375 -0.79375 L 98.765188,55.265322 92.54748,55.13303 92.47777,46.335635 92.40806,37.538239 h 10.85875 10.85875 l -0.0734,3.770312 -0.0734,3.770313 -6.21771,0.14942 c -3.41974,0.08218 -6.24747,0.171478 -6.28385,0.198438 -0.0364,0.02696 -0.0662,0.406204 -0.0662,0.842767 v 0.79375 h 6.05302 c 4.80103,0 6.11521,0.07494 6.35371,0.36231 0.21416,0.258042 0.28059,2.827906 0.23084,8.929688 l -0.0699,8.567376 -10.65663,0.06915 c -8.598181,0.0558 -10.68236,0.0021 -10.789823,-0.277931 z m 26.19375,0 c -0.0732,-0.190897 -0.0998,-1.948424 -0.059,-3.905613 l 0.0742,-3.558526 6.21771,-0.132292 6.2177,-0.132292 v -0.79375 -0.79375 l -6.2177,-0.132291 -6.21771,-0.132292 -0.0697,-8.797395 -0.0697,-8.797396 h 10.85875 10.85875 l -0.0734,3.770312 -0.0734,3.770313 -6.21771,0.14942 c -3.41974,0.08218 -6.24748,0.171478 -6.28386,0.198438 -0.0364,0.02696 -0.0661,0.406204 -0.0661,0.842767 v 0.79375 h 6.05302 c 4.80103,0 6.11521,0.07494 6.35371,0.36231 0.21416,0.258042 0.28059,2.827906 0.23083,8.929688 l -0.0699,8.567376 -10.65663,0.06915 c -8.59818,0.0558 -10.68236,0.0021 -10.78982,-0.277931 z M 66.383179,64.374783 c -0.08896,-0.23182 -0.161742,-6.364878 -0.161742,-13.629017 V 37.538239 h 10.854314 10.854314 l -0.07254,4.431771 -0.07254,4.43177 -6.217708,0.132292 -6.217708,0.132292 v 4.497916 4.497917 l 6.217708,0.144599 c 3.419739,0.07953 6.250424,0.168827 6.290408,0.198438 0.03999,0.02961 0.03999,1.988603 0,4.353317 l -0.0727,4.299479 -10.620028,0.06912 c -9.512144,0.06191 -10.636903,0.02516 -10.781771,-0.352369 z"
           style="fill:#060606;stroke-width:0.26458332" />
      </g>
    </g>
  </g>
</svg>
