<?xml version="1.0" encoding="UTF-8" standalone="no"?>
<svg
   xmlns:dc="http://purl.org/dc/elements/1.1/"
   xmlns:cc="http://creativecommons.org/ns#"
   xmlns:rdf="http://www.w3.org/1999/02/22-rdf-syntax-ns#"
   xmlns:svg="http://www.w3.org/2000/svg"
   xmlns="http://www.w3.org/2000/svg"
   id="svg8"
   version="1.1"
   viewBox="0 0 210 297"
   height="297mm"
   width="210mm">
  <defs
     id="defs2" />
  <metadata
     id="metadata5">
    <rdf:RDF>
      <cc:Work
         rdf:about="">
        <dc:format>image/svg+xml</dc:format>
        <dc:type
           rdf:resource="http://purl.org/dc/dcmitype/StillImage" />
        <dc:title></dc:title>
      </cc:Work>
    </rdf:RDF>
  </metadata>
  <g
     id="layer1">
    <path
       id="path3725"
       d="M 0.07483546,66.8125 C 2.644263,73.013166 9.574775,73.518915 15.949836,74.75 c 7.631763,1.140738 15.711554,-0.682571 23.8125,-2.645833 11.711322,-4.516015 15.345951,-3.901335 23.812499,-5.291667 14.551903,-1.070283 17.66505,3.514844 26.458333,5.291667 15.071222,3.697085 26.335832,4.710449 39.612662,0 12.22491,-6.060023 24.71718,-4.100316 37.11651,-5.291667 15.37403,0.876238 28.40241,3.687726 39.6875,7.9375 V 37.708334 H 0.07483546 Z"
       style="fill:none;stroke:#000000;stroke-width:0.26458332px;stroke-linecap:butt;stroke-linejoin:miter;stroke-opacity:1" />
    <path
       transform="scale(0.26458333)"
       id="path3727"
       d="m 405.72505,282.88255 c -27.8212,-1.9711 -67.48801,-10.62613 -93.95609,-20.50059 -26.3894,-9.8451 -46.10577,-12.98425 -68.15574,-10.85146 -35.20022,3.40475 -58.1475,7.74506 -78.7919,14.90294 -14.81398,5.13633 -36.32284,10.48183 -55.05332,13.68213 -19.447196,3.32278 -42.653095,3.11483 -60.609149,-0.54311 C 21.971233,274.03392 12.790704,269.6516 4.5387923,258.27314 L 1.681681,254.33351 V 198.92668 143.51986 H 390.59041 779.49914 v 68.69037 c 0,37.7797 -0.13257,68.69037 -0.2946,68.69037 -0.16203,0 -6.41235,-2.0593 -13.8896,-4.57624 -16.44992,-5.53725 -39.27593,-11.56009 -57.03155,-15.04825 -30.23142,-5.93909 -69.13241,-10.19176 -84.34774,-9.22092 -5.27805,0.33678 -22.14567,1.04612 -37.4836,1.57632 -30.72384,1.06206 -42.81874,2.13669 -57.97582,5.15112 -10.01712,1.9922 -26.50076,7.30326 -38.62888,12.4463 -20.78627,8.81462 -55.77651,13.66188 -84.1223,11.65362 z"
       style="fill:#f9f9f9;fill-opacity:1;stroke-width:1.01015258" />
    <path
       transform="scale(0.26458333)"
       id="path4534"
       d="m 404.85252,282.81597 c -26.60013,-1.91243 -66.02418,-10.46841 -92.3825,-20.04925 -35.66756,-12.9646 -49.64493,-14.1654 -94.61569,-8.1284 -23.32317,3.13097 -33.95572,5.53014 -54.00419,12.18572 -17.03494,5.65516 -40.15515,11.25996 -58.62782,14.21257 -4.44467,0.71042 -15.80889,1.29839 -25.253817,1.30661 -13.808049,0.012 -19.448608,-0.43407 -28.789347,-2.27681 C 22.567969,274.42199 13.01212,269.95691 4.5387923,258.27314 L 1.681681,254.33351 V 198.92668 143.51986 H 390.59041 779.49914 v 68.79844 c 0,54.62112 -0.2602,68.69962 -1.26269,68.31885 -17.49827,-6.64625 -53.1017,-16.23167 -75.72406,-20.38701 -28.89719,-5.30789 -66.09825,-9.21503 -78.07166,-8.19968 -3.88909,0.32981 -20.25356,1.05037 -36.3655,1.60127 -45.60327,1.55924 -66.42002,4.78712 -88.0618,13.65503 -22.5324,9.23283 -41.65773,13.89258 -63.96615,15.58489 -14.84264,1.12596 -14.46853,1.12687 -31.19476,-0.0757 z"
       style="fill:#f9f9f9;fill-opacity:1;stroke-width:1.01015258" />
    <path
       transform="scale(0.26458333)"
       id="path4536"
       d="m 403.72239,282.81768 c -23.74079,-1.85471 -63.97659,-10.28943 -84.85281,-17.7879 -32.94483,-11.83334 -40.3607,-13.4236 -62.5983,-13.4236 -16.58523,0 -46.09176,3.44494 -65.69107,7.66955 -6.38922,1.37719 -19.02039,4.96858 -28.06927,7.98086 C 124.45132,279.92625 86.129733,285.30203 60.775605,281.5281 27.595834,276.58932 13.635488,270.81646 4.5387923,258.27314 L 1.681681,254.33351 V 198.92668 143.51986 H 390.59041 779.49914 v 68.79844 c 0,54.62187 -0.26018,68.69934 -1.26269,68.31744 -16.128,-6.1439 -54.38975,-16.43128 -75.86377,-20.39739 -26.66188,-4.92428 -67.94867,-9.25242 -77.90995,-8.16739 -2.79002,0.30389 -18.48254,1.01961 -34.87227,1.59046 -50.44115,1.75688 -65.84979,4.29316 -94.22264,15.50912 -20.48179,8.09657 -36.97237,11.94789 -58.81547,13.73614 -13.57033,1.11099 -17.61005,1.10004 -32.82996,-0.089 z"
       style="fill:#f9f9f9;fill-opacity:1;stroke-width:1.01015258" />
    <path
       transform="scale(0.26458333)"
       id="path4538"
       d="m 408.26808,283.24475 c -27.27444,-1.73965 -67.70536,-10.29638 -94.91576,-20.0878 -24.82064,-8.93149 -32.82398,-10.68207 -51.55636,-11.27699 -12.87734,-0.40897 -19.85817,-0.0616 -34.34519,1.70887 -31.21377,3.81473 -47.33,7.40011 -72.23023,16.06906 -8.58066,2.98733 -34.72768,8.93793 -49.99822,11.37872 -13.604521,2.17449 -40.422836,1.71373 -54.09751,-0.92943 C 27.046359,275.45307 16.455801,271.27808 9.1545854,263.56177 1.0345236,254.98005 1.681681,260.58382 1.681681,198.85348 V 143.51986 H 390.59041 779.49914 v 68.69037 c 0,37.7797 -0.15612,68.69037 -0.34694,68.69037 -0.19081,0 -3.03187,-0.93759 -6.31345,-2.08354 -30.49173,-10.64789 -72.99213,-20.10122 -108.497,-24.1329 -28.3703,-3.22151 -29.00058,-3.2216 -94.41527,-0.0127 -32.06814,1.57311 -48.84576,4.62621 -69.44422,12.63709 -33.97381,13.21263 -61.18554,17.91527 -92.21418,15.93617 z"
       style="fill:#f9f9f9;fill-opacity:1;stroke-width:1.01015258" />
    <path
       transform="scale(0.26458333)"
       id="path4540"
       d="m 402.20717,282.85448 c -26.93559,-2.51842 -59.74083,-9.84373 -90.40866,-20.18798 -33.55192,-11.31704 -49.15095,-13.16186 -80.30712,-9.4975 -30.88675,3.63267 -43.76095,6.22506 -65.35363,13.15981 -43.38424,13.93339 -79.23194,19.01997 -106.372308,15.09362 -15.670774,-2.26707 -33.052238,-6.64774 -39.657683,-9.99497 -6.198464,-3.141 -11.643525,-7.74155 -15.5689767,-13.15432 L 1.681681,254.33351 V 198.92668 143.51986 H 390.59041 779.49914 v 68.69037 c 0,37.7797 -0.14303,68.69037 -0.31783,68.69037 -0.17481,0 -6.58347,-2.04082 -14.24148,-4.53515 -28.00956,-9.12316 -61.339,-16.50108 -93.52701,-20.70349 -29.58945,-3.86314 -40.08139,-3.97299 -98.99495,-1.03648 -35.97613,1.79322 -49.38092,4.3086 -75.87042,14.23691 -18.37161,6.88572 -30.81608,10.28733 -45.74492,12.50404 -13.67264,2.0302 -35.61173,2.702 -48.59536,1.48805 z"
       style="fill:#f9f9f9;fill-opacity:1;stroke-width:1.01015258" />
    <path
       transform="scale(0.26458333)"
       id="path4542"
       d="m 401.19701,282.86818 c -26.62,-2.74504 -62.66077,-10.7239 -86.36804,-19.12054 -33.26515,-11.78186 -51.53415,-14.17378 -81.82236,-10.71285 -32.07865,3.66552 -45.4421,6.42957 -71.21575,14.73002 -14.98027,4.82442 -39.89076,10.78361 -55.55839,13.29092 -12.262039,1.9623 -42.449324,1.68734 -53.538085,-0.48765 C 28.069276,275.73801 17.522064,271.66928 9.4311116,263.87871 1.1592544,255.91396 1.681681,260.31315 1.681681,198.62333 V 143.51986 H 390.59041 779.49914 v 68.80818 c 0,65.07694 -0.0959,68.77706 -1.76777,68.23393 -41.37679,-13.44126 -70.37436,-20.19647 -107.3287,-25.00302 -22.38464,-2.91152 -39.75304,-3.38528 -74.24622,-2.0252 -58.34892,2.3007 -69.15569,4.01556 -101.81621,16.15656 -17.17639,6.38504 -25.11091,8.57977 -40.46984,11.19423 -14.00255,2.38356 -39.4879,3.34332 -52.67339,1.98364 z"
       style="fill:#f9f9f9;fill-opacity:1;stroke-width:1.01015258" />
    <path
       transform="scale(0.26458333)"
       id="path4544"
       d="m 400.69194,282.77395 c -27.39924,-2.83576 -57.25407,-9.50284 -87.3782,-19.51299 -30.68608,-10.1969 -35.37705,-11.09933 -57.57869,-11.07673 -30.08959,0.0306 -61.15111,5.08889 -92.16654,15.00904 -16.81377,5.3778 -35.4042,9.98136 -53.80051,13.32267 -13.676183,2.48399 -44.655993,2.51959 -57.073615,0.0656 C 27.947228,275.69091 17.516433,271.66386 9.4311116,263.87871 1.1592544,255.91396 1.681681,260.31315 1.681681,198.62333 V 143.51986 H 390.59041 779.49914 v 68.69037 c 0,37.7797 -0.28461,68.69037 -0.63248,68.69037 -0.34786,0 -7.50732,-2.22082 -15.9099,-4.93516 -28.31906,-9.14808 -58.33631,-15.7606 -93.05917,-20.50007 -14.87429,-2.03026 -21.02563,-2.32849 -45.96194,-2.2283 -47.32115,0.19013 -82.21759,2.73183 -101.59156,7.39949 -4.48384,1.08027 -16.32335,4.90865 -26.31001,8.50753 -9.98667,3.59888 -20.93585,7.26334 -24.33153,8.14326 -22.31043,5.78121 -48.56449,7.80972 -71.01061,5.4866 z"
       style="fill:#f9f9f9;fill-opacity:1;stroke-width:1.01015258" />
    <path
       transform="scale(0.26458333)"
       id="path4546"
       d="m 404.73255,283.2531 c -31.36625,-3.14631 -58.86265,-9.18365 -93.43911,-20.51631 -11.66727,-3.82403 -24.65364,-7.65242 -28.8586,-8.50756 -11.50675,-2.34003 -28.16802,-3.01462 -42.35716,-1.71496 -30.82324,2.82323 -53.03398,7.18654 -79.29697,15.57793 -14.26808,4.55885 -33.35767,9.21077 -51.01271,12.43124 -6.96265,1.27006 -15.002654,1.75263 -29.29442,1.75825 -17.471297,0.007 -21.197344,-0.30057 -32.961926,-2.71989 C 26.157482,275.17043 17.43314,271.5768 9.4311116,263.87612 1.1594175,255.91592 1.681681,260.31356 1.681681,198.62333 V 143.51986 H 390.59041 779.49914 v 68.69037 c 0,37.7797 -0.28205,68.69037 -0.62678,68.69037 -0.34473,0 -6.93587,-2.03153 -14.64696,-4.5145 -37.50266,-12.0759 -86.50913,-21.43909 -122.10701,-23.32981 -13.00504,-0.69074 -62.12199,0.83988 -85.35789,2.65999 -19.25716,1.50845 -34.45429,4.46566 -49.39063,9.61093 -39.89457,13.74289 -47.09521,15.59155 -68.29214,17.53298 -10.96285,1.00408 -26.48227,1.18162 -34.34518,0.39291 z"
       style="fill:#f9f9f9;fill-opacity:1;stroke-width:1.01015258" />
  </g>
</svg>
